<?xml version="1.0" encoding="UTF-8" standalone="no"?>
<!-- Created with Inkscape (http://www.inkscape.org/) -->

<svg xmlns:dc="http://purl.org/dc/elements/1.1/" xmlns:cc="http://creativecommons.org/ns#" xmlns:rdf="http://www.w3.org/1999/02/22-rdf-syntax-ns#" xmlns:svg="http://www.w3.org/2000/svg" xmlns="http://www.w3.org/2000/svg" xmlns:sodipodi="http://sodipodi.sourceforge.net/DTD/sodipodi-0.dtd" xmlns:inkscape="http://www.inkscape.org/namespaces/inkscape" width="52.881740570068mm" height="22.577777862549mm" id="svg4268" version="1.1" inkscape:version="0.91 r13725" sodipodi:docname="humanetech-community-logo.svg">
  <title id="title4867">Humane Tech Community</title>
  <defs id="defs4270" />
  <sodipodi:namedview id="base" pagecolor="#ffffff" bordercolor="#666666" borderopacity="1.0" inkscape:pageopacity="0.0" inkscape:pageshadow="2" inkscape:zoom="1" inkscape:cx="-43.714472481996" inkscape:cy="-278.0439285652" inkscape:document-units="px" inkscape:current-layer="svg4268" showgrid="false" inkscape:window-width="1983" inkscape:window-height="1128" inkscape:window-x="65" inkscape:window-y="24" inkscape:window-maximized="1" fit-margin-top="0" fit-margin-left="0" fit-margin-right="0" fit-margin-bottom="0" />
  <metadata id="metadata4273">
    <rdf:RDF>
      <cc:Work rdf:about="">
        <dc:format>image/svg+xml</dc:format>
        <dc:type rdf:resource="http://purl.org/dc/dcmitype/StillImage" />
        <dc:title>Humane Tech Community</dc:title>
        <cc:license rdf:resource="http://creativecommons.org/licenses/by-nc/3.0/" />
        <dc:creator>
          <cc:Agent>
            <dc:title>Arnold Schrijver</dc:title>
          </cc:Agent>
        </dc:creator>
        <dc:language>e</dc:language>
      </cc:Work>
      <cc:License rdf:about="http://creativecommons.org/licenses/by-nc/3.0/">
        <cc:permits rdf:resource="http://creativecommons.org/ns#Reproduction" />
        <cc:permits rdf:resource="http://creativecommons.org/ns#Distribution" />
        <cc:requires rdf:resource="http://creativecommons.org/ns#Notice" />
        <cc:requires rdf:resource="http://creativecommons.org/ns#Attribution" />
        <cc:prohibits rdf:resource="http://creativecommons.org/ns#CommercialUse" />
        <cc:permits rdf:resource="http://creativecommons.org/ns#DerivativeWorks" />
      </cc:License>
    </rdf:RDF>
  </metadata>
  <g inkscape:label="Layer 1" inkscape:groupmode="layer" id="humanetech-community-logo" transform="translate(-252.02616071429,-174.31827614677)" inkscape:export-xdpi="90" inkscape:export-ydpi="90">
    <g style="font-style:normal;font-variant:normal;font-weight:600;font-stretch:normal;font-size:23.75px;line-height:125%;font-family:'Open Sans';-inkscape-font-specification:'Open Sans, Semi-Bold';text-align:start;writing-mode:lr-tb;text-anchor:start;fill:#1e2227;fill-opacity:1;fill-rule:nonzero;stroke:none" id="logo-text">
      <path d="M 283.5517578125,207.05952453613 280.7685546875,207.05952453613 280.7685546875,199.41731262207 272.95239257813,199.41731262207 272.95239257813,207.05952453613 270.18078613281,207.05952453613 270.18078613281,190.10517883301 272.95239257813,190.10517883301 272.95239257813,197.03999328613 280.7685546875,197.03999328613 280.7685546875,190.10517883301 283.5517578125,190.10517883301 283.5517578125,207.05952453613 Z" style="text-align:center;text-anchor:middle" id="path4909" />
      <path d="M 296.79516601563,207.05952453613 296.41247558594,205.37800598145 296.27331542969,205.37800598145 Q 295.705078125,206.27095031738 294.64978027344,206.78120422363 293.60607910156,207.29145812988 292.26086425781,207.29145812988 289.92993164063,207.29145812988 288.78186035156,206.13179016113 287.6337890625,204.97212219238 287.6337890625,202.61799621582 L 287.6337890625,194.23359680176 290.38220214844,194.23359680176 290.38220214844,202.14253234863 Q 290.38220214844,203.61531066895 290.98522949219,204.35749816895 291.58825683594,205.08808898926 292.87548828125,205.08808898926 294.591796875,205.08808898926 295.39196777344,204.06758117676 296.20373535156,203.03547668457 296.20373535156,200.62336730957 L 296.20373535156,194.23359680176 298.94055175781,194.23359680176 298.94055175781,207.05952453613 296.79516601563,207.05952453613 Z" style="text-align:center;text-anchor:middle" id="path4911" />
      <path d="M 313.63354492188,207.05952453613 310.89672851563,207.05952453613 310.89672851563,199.15058898926 Q 310.89672851563,197.67781066895 310.34008789063,196.95881652832 309.78344726563,196.22822570801 308.6005859375,196.22822570801 307.0234375,196.22822570801 306.28125,197.2603302002 305.55065917969,198.2808380127 305.55065917969,200.66975402832 L 305.55065917969,207.05952453613 302.82543945313,207.05952453613 302.82543945313,194.23359680176 304.95922851563,194.23359680176 305.34191894531,195.91511535645 305.48107910156,195.91511535645 Q 306.01452636719,194.99897766113 307.0234375,194.50032043457 308.0439453125,194.00166320801 309.26159667969,194.00166320801 312.21875,194.00166320801 313.18127441406,196.01948547363 L 313.36682128906,196.01948547363 Q 313.93505859375,195.06855773926 314.96716308594,194.53511047363 315.99926757813,194.00166320801 317.33288574219,194.00166320801 319.62902832031,194.00166320801 320.67272949219,195.16133117676 321.72802734375,196.32099914551 321.72802734375,198.69831848145 L 321.72802734375,207.05952453613 319.00280761719,207.05952453613 319.00280761719,199.15058898926 Q 319.00280761719,197.67781066895 318.4345703125,196.95881652832 317.8779296875,196.22822570801 316.69506835938,196.22822570801 315.10632324219,196.22822570801 314.36413574219,197.22554016113 313.63354492188,198.21125793457 313.63354492188,200.26387023926 L 313.63354492188,207.05952453613 Z" style="text-align:center;text-anchor:middle" id="path4913" />
      <path d="M 333.57983398438,207.05952453613 333.03479003906,205.27363586426 332.94201660156,205.27363586426 Q 332.01428222656,206.4449005127 331.07495117188,206.87397766113 330.13562011719,207.29145812988 328.66284179688,207.29145812988 326.77258300781,207.29145812988 325.70568847656,206.27095031738 324.650390625,205.25044250488 324.650390625,203.3833770752 324.650390625,201.40034484863 326.12316894531,200.39143371582 327.59594726563,199.38252258301 330.61108398438,199.28974914551 L 332.82604980469,199.22016906738 332.82604980469,198.53596496582 Q 332.82604980469,197.30671691895 332.24621582031,196.7036895752 331.67797851563,196.08906555176 330.47192382813,196.08906555176 329.48620605469,196.08906555176 328.58166503906,196.37898254395 327.67712402344,196.66889953613 326.84216308594,197.06318664551 L 325.96081542969,195.11494445801 Q 327.00451660156,194.5699005127 328.24536132813,194.2915802002 329.48620605469,194.00166320801 330.587890625,194.00166320801 333.03479003906,194.00166320801 334.27563476563,195.06855773926 335.52807617188,196.13545227051 335.52807617188,198.41999816895 L 335.52807617188,207.05952453613 333.57983398438,207.05952453613 Z M 329.52099609375,205.20405578613 Q 331.00537109375,205.20405578613 331.89831542969,204.38069152832 332.80285644531,203.54573059082 332.80285644531,202.04975891113 L 332.80285644531,200.93647766113 331.15612792969,201.00605773926 Q 329.23107910156,201.07563781738 328.34973144531,201.65547180176 327.47998046875,202.22370910645 327.47998046875,203.40657043457 327.47998046875,204.26472473145 327.990234375,204.74018859863 328.50048828125,205.20405578613 329.52099609375,205.20405578613 Z" style="text-align:center;text-anchor:middle" id="path4915" />
      <path d="M 350.61535644531,207.05952453613 347.87854003906,207.05952453613 347.87854003906,199.17378234863 Q 347.87854003906,197.68940734863 347.27551269531,196.95881652832 346.68408203125,196.22822570801 345.38525390625,196.22822570801 343.65734863281,196.22822570801 342.85717773438,197.24873352051 342.05700683594,198.26924133301 342.05700683594,200.66975402832 L 342.05700683594,207.05952453613 339.33178710938,207.05952453613 339.33178710938,194.23359680176 341.46557617188,194.23359680176 341.84826660156,195.91511535645 341.98742675781,195.91511535645 Q 342.56726074219,194.99897766113 343.63415527344,194.50032043457 344.70104980469,194.00166320801 345.99987792969,194.00166320801 350.61535644531,194.00166320801 350.61535644531,198.69831848145 L 350.61535644531,207.05952453613 Z" style="text-align:center;text-anchor:middle" id="path4917" />
      <path d="M 360.00866699219,207.29145812988 Q 357.01672363281,207.29145812988 355.32360839844,205.55195617676 353.64208984375,203.80085754395 353.64208984375,200.73933410645 353.64208984375,197.59663391113 355.20764160156,195.79914855957 356.77319335938,194.00166320801 359.51000976563,194.00166320801 362.04968261719,194.00166320801 363.5224609375,195.54402160645 364.99523925781,197.08638000488 364.99523925781,199.78840637207 L 364.99523925781,201.26118469238 356.44848632813,201.26118469238 Q 356.50646972656,203.12825012207 357.45739746094,204.13716125488 358.40832519531,205.13447570801 360.13623046875,205.13447570801 361.27270507813,205.13447570801 362.24682617188,204.92573547363 363.23254394531,204.70539855957 364.357421875,204.20674133301 L 364.357421875,206.42170715332 Q 363.36010742188,206.89717102051 362.33959960938,207.0943145752 361.31909179688,207.29145812988 360.00866699219,207.29145812988 Z M 359.51000976563,196.06587219238 Q 358.21118164063,196.06587219238 357.42260742188,196.8892364502 356.64562988281,197.71260070801 356.49487304688,199.28974914551 L 362.31640625,199.28974914551 Q 362.29321289063,197.70100402832 361.55102539063,196.8892364502 360.80883789063,196.06587219238 359.51000976563,196.06587219238 Z" style="text-align:center;text-anchor:middle" id="path4919" />
      <path d="M 380.4072265625,207.05952453613 377.63562011719,207.05952453613 377.63562011719,192.48249816895 372.64904785156,192.48249816895 372.64904785156,190.10517883301 385.39379882813,190.10517883301 385.39379882813,192.48249816895 380.4072265625,192.48249816895 380.4072265625,207.05952453613 Z" style="text-align:center;text-anchor:middle" id="path4921" />
      <path d="M 393.31433105469,207.29145812988 Q 390.32238769531,207.29145812988 388.62927246094,205.55195617676 386.94775390625,203.80085754395 386.94775390625,200.73933410645 386.94775390625,197.59663391113 388.51330566406,195.79914855957 390.07885742188,194.00166320801 392.81567382813,194.00166320801 395.35534667969,194.00166320801 396.828125,195.54402160645 398.30090332031,197.08638000488 398.30090332031,199.78840637207 L 398.30090332031,201.26118469238 389.75415039063,201.26118469238 Q 389.81213378906,203.12825012207 390.76306152344,204.13716125488 391.71398925781,205.13447570801 393.44189453125,205.13447570801 394.57836914063,205.13447570801 395.55249023438,204.92573547363 396.53820800781,204.70539855957 397.6630859375,204.20674133301 L 397.6630859375,206.42170715332 Q 396.66577148438,206.89717102051 395.64526367188,207.0943145752 394.62475585938,207.29145812988 393.31433105469,207.29145812988 Z M 392.81567382813,196.06587219238 Q 391.51684570313,196.06587219238 390.72827148438,196.8892364502 389.95129394531,197.71260070801 389.80053710938,199.28974914551 L 395.6220703125,199.28974914551 Q 395.59887695313,197.70100402832 394.85668945313,196.8892364502 394.11450195313,196.06587219238 392.81567382813,196.06587219238 Z" style="text-align:center;text-anchor:middle" id="path4923" />
      <path d="M 406.5693359375,207.29145812988 Q 403.65856933594,207.29145812988 402.13940429688,205.59834289551 400.6318359375,203.89363098145 400.6318359375,200.71614074707 400.6318359375,197.48066711426 402.208984375,195.74116516113 403.79772949219,194.00166320801 406.78967285156,194.00166320801 408.81909179688,194.00166320801 410.44262695313,194.7554473877 L 409.61926269531,196.94721984863 Q 407.89135742188,196.27461242676 406.76647949219,196.27461242676 403.43823242188,196.27461242676 403.43823242188,200.6929473877 403.43823242188,202.84992980957 404.26159667969,203.9400177002 405.09655761719,205.01850891113 406.69689941406,205.01850891113 408.517578125,205.01850891113 410.14111328125,204.11396789551 L 410.14111328125,206.49128723145 Q 409.41052246094,206.92036437988 408.57556152344,207.10591125488 407.75219726563,207.29145812988 406.5693359375,207.29145812988 Z" style="text-align:center;text-anchor:middle" id="path4925" />
      <path d="M 424.46301269531,207.05952453613 421.72619628906,207.05952453613 421.72619628906,199.17378234863 Q 421.72619628906,197.68940734863 421.12316894531,196.95881652832 420.53173828125,196.22822570801 419.23291015625,196.22822570801 417.5166015625,196.22822570801 416.70483398438,197.2603302002 415.90466308594,198.2808380127 415.90466308594,200.6929473877 L 415.90466308594,207.05952453613 413.17944335938,207.05952453613 413.17944335938,189.01509094238 415.90466308594,189.01509094238 415.90466308594,193.59577941895 Q 415.90466308594,194.69746398926 415.76550292969,195.94990539551 L 415.939453125,195.94990539551 Q 416.49609375,195.02217102051 417.48181152344,194.51191711426 418.47912597656,194.00166320801 419.80114746094,194.00166320801 424.46301269531,194.00166320801 424.46301269531,198.69831848145 L 424.46301269531,207.05952453613 Z" style="text-align:center;text-anchor:middle" id="path4927" />
      <path d="M 289.61682128906,221.92646789551 Q 287.22790527344,221.92646789551 285.85949707031,223.61958312988 284.49108886719,225.31269836426 284.49108886719,228.29304504395 284.49108886719,231.41255187988 285.80151367188,233.01289367676 287.12353515625,234.61323547363 289.61682128906,234.61323547363 290.6953125,234.61323547363 291.70422363281,234.40449523926 292.71313476563,234.1841583252 293.80322265625,233.84785461426 L 293.80322265625,236.2251739502 Q 291.80859375,236.97895812988 289.28051757813,236.97895812988 285.55798339844,236.97895812988 283.56335449219,234.72920227051 281.56872558594,232.46784973145 281.56872558594,228.26985168457 281.56872558594,225.62580871582 282.53125,223.64277648926 283.50537109375,221.6597442627 285.33764648438,220.60444641113 287.169921875,219.54914855957 289.64001464844,219.54914855957 292.23767089844,219.54914855957 294.44104003906,220.6392364502 L 293.44372558594,222.94697570801 Q 292.58557128906,222.54109191895 291.623046875,222.23957824707 290.67211914063,221.92646789551 289.61682128906,221.92646789551 Z" style="text-align:center;text-anchor:middle" id="path4929" />
      <path d="M 308.56579589844,230.31086730957 Q 308.56579589844,233.45356750488 306.95385742188,235.21626281738 305.34191894531,236.97895812988 302.46594238281,236.97895812988 300.66845703125,236.97895812988 299.28845214844,236.16719055176 297.90844726563,235.35542297363 297.16625976563,233.83625793457 296.42407226563,232.31709289551 296.42407226563,230.31086730957 296.42407226563,227.19136047363 298.0244140625,225.44026184082 299.62475585938,223.68916320801 302.53552246094,223.68916320801 305.31872558594,223.68916320801 306.94226074219,225.48664855957 308.56579589844,227.27253723145 308.56579589844,230.31086730957 Z M 299.23046875,230.31086730957 Q 299.23046875,234.75239562988 302.51232910156,234.75239562988 305.75939941406,234.75239562988 305.75939941406,230.31086730957 305.75939941406,225.91572570801 302.48913574219,225.91572570801 300.77282714844,225.91572570801 299.99584960938,227.05220031738 299.23046875,228.18867492676 299.23046875,230.31086730957 Z" style="text-align:center;text-anchor:middle" id="path4931" />
      <path d="M 322.5166015625,236.74702453613 319.77978515625,236.74702453613 319.77978515625,228.83808898926 Q 319.77978515625,227.36531066895 319.22314453125,226.64631652832 318.66650390625,225.91572570801 317.48364257813,225.91572570801 315.90649414063,225.91572570801 315.16430664063,226.9478302002 314.43371582031,227.9683380127 314.43371582031,230.35725402832 L 314.43371582031,236.74702453613 311.70849609375,236.74702453613 311.70849609375,223.92109680176 313.84228515625,223.92109680176 314.22497558594,225.60261535645 314.36413574219,225.60261535645 Q 314.89758300781,224.68647766113 315.90649414063,224.18782043457 316.92700195313,223.68916320801 318.14465332031,223.68916320801 321.10180664063,223.68916320801 322.06433105469,225.70698547363 L 322.24987792969,225.70698547363 Q 322.81811523438,224.75605773926 323.85021972656,224.22261047363 324.88232421875,223.68916320801 326.21594238281,223.68916320801 328.51208496094,223.68916320801 329.55578613281,224.84883117676 330.61108398438,226.00849914551 330.61108398438,228.38581848145 L 330.61108398438,236.74702453613 327.88586425781,236.74702453613 327.88586425781,228.83808898926 Q 327.88586425781,227.36531066895 327.31762695313,226.64631652832 326.76098632813,225.91572570801 325.578125,225.91572570801 323.98937988281,225.91572570801 323.24719238281,226.91304016113 322.5166015625,227.89875793457 322.5166015625,229.95137023926 L 322.5166015625,236.74702453613 Z" style="text-align:center;text-anchor:middle" id="path4933" />
      <path d="M 345.24609375,236.74702453613 342.50927734375,236.74702453613 342.50927734375,228.83808898926 Q 342.50927734375,227.36531066895 341.95263671875,226.64631652832 341.39599609375,225.91572570801 340.21313476563,225.91572570801 338.63598632813,225.91572570801 337.89379882813,226.9478302002 337.16320800781,227.9683380127 337.16320800781,230.35725402832 L 337.16320800781,236.74702453613 334.43798828125,236.74702453613 334.43798828125,223.92109680176 336.57177734375,223.92109680176 336.95446777344,225.60261535645 337.09362792969,225.60261535645 Q 337.62707519531,224.68647766113 338.63598632813,224.18782043457 339.65649414063,223.68916320801 340.87414550781,223.68916320801 343.83129882813,223.68916320801 344.79382324219,225.70698547363 L 344.97937011719,225.70698547363 Q 345.54760742188,224.75605773926 346.57971191406,224.22261047363 347.61181640625,223.68916320801 348.94543457031,223.68916320801 351.24157714844,223.68916320801 352.28527832031,224.84883117676 353.34057617188,226.00849914551 353.34057617188,228.38581848145 L 353.34057617188,236.74702453613 350.61535644531,236.74702453613 350.61535644531,228.83808898926 Q 350.61535644531,227.36531066895 350.04711914063,226.64631652832 349.49047851563,225.91572570801 348.3076171875,225.91572570801 346.71887207031,225.91572570801 345.97668457031,226.91304016113 345.24609375,227.89875793457 345.24609375,229.95137023926 L 345.24609375,236.74702453613 Z" style="text-align:center;text-anchor:middle" id="path4935" />
      <path d="M 366.212890625,236.74702453613 365.83020019531,235.06550598145 365.69104003906,235.06550598145 Q 365.12280273438,235.95845031738 364.06750488281,236.46870422363 363.02380371094,236.97895812988 361.67858886719,236.97895812988 359.34765625,236.97895812988 358.19958496094,235.81929016113 357.05151367188,234.65962219238 357.05151367188,232.30549621582 L 357.05151367188,223.92109680176 359.79992675781,223.92109680176 359.79992675781,231.83003234863 Q 359.79992675781,233.30281066895 360.40295410156,234.04499816895 361.00598144531,234.77558898926 362.29321289063,234.77558898926 364.00952148438,234.77558898926 364.80969238281,233.75508117676 365.62145996094,232.72297668457 365.62145996094,230.31086730957 L 365.62145996094,223.92109680176 368.35827636719,223.92109680176 368.35827636719,236.74702453613 366.212890625,236.74702453613 Z" style="text-align:center;text-anchor:middle" id="path4937" />
      <path d="M 383.52673339844,236.74702453613 380.78991699219,236.74702453613 380.78991699219,228.86128234863 Q 380.78991699219,227.37690734863 380.18688964844,226.64631652832 379.59545898438,225.91572570801 378.29663085938,225.91572570801 376.56872558594,225.91572570801 375.7685546875,226.93623352051 374.96838378906,227.95674133301 374.96838378906,230.35725402832 L 374.96838378906,236.74702453613 372.2431640625,236.74702453613 372.2431640625,223.92109680176 374.376953125,223.92109680176 374.75964355469,225.60261535645 374.89880371094,225.60261535645 Q 375.47863769531,224.68647766113 376.54553222656,224.18782043457 377.61242675781,223.68916320801 378.91125488281,223.68916320801 383.52673339844,223.68916320801 383.52673339844,228.38581848145 L 383.52673339844,236.74702453613 Z" style="text-align:center;text-anchor:middle" id="path4939" />
      <path d="M 390.04406738281,236.74702453613 387.31884765625,236.74702453613 387.31884765625,223.92109680176 390.04406738281,223.92109680176 390.04406738281,236.74702453613 Z M 387.15649414063,220.52326965332 Q 387.15649414063,219.79267883301 387.55078125,219.39839172363 387.95666503906,219.00410461426 388.69885253906,219.00410461426 389.41784667969,219.00410461426 389.81213378906,219.39839172363 390.21801757813,219.79267883301 390.21801757813,220.52326965332 390.21801757813,221.21907043457 389.81213378906,221.62495422363 389.41784667969,222.01924133301 388.69885253906,222.01924133301 387.95666503906,222.01924133301 387.55078125,221.62495422363 387.15649414063,221.21907043457 387.15649414063,220.52326965332 Z" style="text-align:center;text-anchor:middle" id="path4941" />
      <path d="M 398.72998046875,234.77558898926 Q 399.72729492188,234.77558898926 400.724609375,234.4624786377 L 400.724609375,236.51509094238 Q 400.27233886719,236.71223449707 399.55334472656,236.83979797363 398.84594726563,236.97895812988 398.08056640625,236.97895812988 394.20727539063,236.97895812988 394.20727539063,232.89692687988 L 394.20727539063,225.98530578613 392.45617675781,225.98530578613 392.45617675781,224.77925109863 394.33483886719,223.78193664551 395.26257324219,221.06831359863 396.94409179688,221.06831359863 396.94409179688,223.92109680176 400.59704589844,223.92109680176 400.59704589844,225.98530578613 396.94409179688,225.98530578613 396.94409179688,232.85054016113 Q 396.94409179688,233.83625793457 397.43115234375,234.31172180176 397.92980957031,234.77558898926 398.72998046875,234.77558898926 Z" style="text-align:center;text-anchor:middle" id="path4943" />
      <path d="M 401.32763671875,223.92109680176 404.29638671875,223.92109680176 406.90563964844,231.19221496582 Q 407.4970703125,232.74617004395 407.69421386719,234.11457824707 L 407.78698730469,234.11457824707 Q 407.89135742188,233.47676086426 408.16967773438,232.57221984863 408.44799804688,231.65608215332 411.115234375,223.92109680176 L 414.06079101563,223.92109680176 408.57556152344,238.4517364502 Q 407.07958984375,242.45259094238 403.58898925781,242.45259094238 402.68444824219,242.45259094238 401.82629394531,242.2554473877 L 401.82629394531,240.09846496582 Q 402.44091796875,240.23762512207 403.2294921875,240.23762512207 405.20092773438,240.23762512207 406.00109863281,237.95307922363 L 406.4765625,236.74702453613 401.32763671875,223.92109680176 Z" style="text-align:center;text-anchor:middle" id="path4945" />
    </g>
    <path id="left-bracket" style="fill:none;stroke:#1e2227;stroke-width:2.2209157944;stroke-linecap:butt;stroke-linejoin:miter;stroke-miterlimit:10;stroke-dasharray:none;stroke-opacity:1" d="M 252.02616071429,253.20781826202 267.46703571429,253.20781826202 M 252.02616071429,175.42873404396 267.46703571429,175.42873404396 M 253.60178571429,175.54711324981 253.60178571429,253.20781826202" inkscape:connector-curvature="0" />
    <path id="right-bracket" style="fill:none;stroke:#1e2227;stroke-width:2.2209157944;stroke-linecap:butt;stroke-linejoin:miter;stroke-miterlimit:10;stroke-dasharray:none;stroke-opacity:1" d="M 423.34491071428,253.20781826202 438.78491071428,253.20781826202 M 423.96241071428,175.42873404396 439.40241071428,175.42873404396 M 437.89366071428,175.54711324981 437.89366071428,253.20781826202" inkscape:connector-curvature="0" />
  </g>
</svg>
