<?xml version="1.0" encoding="UTF-8" standalone="no"?>
<svg xmlns:svg="http://www.w3.org/2000/svg" xmlns="http://www.w3.org/2000/svg" width="39.332210540771" height="39.332210540771" version="1.1" viewBox="0 0 10.404725714856 10.4077795786">
  <metadata/>s
  <g transform="matrix(0.419704,0,0,0.419704,-22.88939057909,-36.121383339963)" id="g38">
    <g transform="matrix(0.9954,0,0,0.9673,0.4985,3.253)" id="g36">
      <g transform="matrix(0.8751,-0.5491,0.5491,0.8751,-47.17,47.02)" id="g34">
        <path transform="matrix(0.534,0.3351,-0.3351,0.534,54.69,80.12)" d="M 34.52,21.54 C 34.52,19.196 32.427,17.319 30.885,17.319 27.752,17.319 26.87,20.36 28.365,21.696 29.947,20.149 31.126,20.098 30.792,22.1134 23.228,25.5344 24.956,13.1784 32.613,16.0354 36.023,17.9974 36.978,23.6234 37.608,23.1124 L 43.312,19.2814 C 43.312,15.2814 38.23,7.4114 29.652,7.4114 22.154,7.5414 18.532,12.5554 18.392,17.7614 18.2593,22.7604 21.35,27.3414 26.926,27.4074 30.992,27.46186 34.495,25.4224 34.52,21.5454 Z" style="color:black;isolation:auto;mix-blend-mode:normal;solid-color:black;fill:#86a8d7;fill-opacity:1;color-rendering:auto;image-rendering:auto;shape-rendering:auto" id="path28" />
        <path d="M 72.29,106.3 C 70.812,106.6876 68.418,106.6396 67.106,106.5735 66.5777,107.5925 66.6055,108.9525 67.4384,110.2155 68.2185,111.3985 70.1244,111.9135 71.4734,112.5275 70.2614,110.9375 69.8554,110.0375 69.8404,108.2155 71.8624,108.9782 72.6484,110.8045 74.0524,112.1005 74.2231,110.6185 73.7176,108.5755 72.8604,107.1155 72.6794,106.8071 72.4884,106.5382 72.2896,106.2994 Z" style="color:black;isolation:auto;mix-blend-mode:normal;solid-color:black;fill:#3c6eb4;fill-opacity:1;color-rendering:auto;image-rendering:auto;shape-rendering:auto" id="path30" />
        <path d="M 63.15,101.3 C 63.3235,101.1052 63.5225,101.5062 63.5241,101.6256 63.5323,102.2407 62.741,102.4182 62.2651,102.2508 61.1981,101.8753 60.9651,100.4818 61.3932,99.5268 62.1291,97.8848 64.1522,97.5508 65.5462,98.3118 67.6432,99.4558 68.0072,102.2688 66.8432,104.1368 65.2292,106.7278 61.5862,106.9818 59.0272,105.1838 55.6652,102.8208 55.0562,98.0728 57.1892,94.8338 59.8862,90.7418 65.5892,90.1788 69.4792,92.9678 73.1462,95.5988 74.5992,100.4568 73.2272,104.7278 71.7492,105.7998 66.1962,105.3235 66.1962,105.3235" style="fill:none;stroke:#3c6eb4;stroke-width:1.3020000458;stroke-linecap:round;stroke-opacity:1" id="path32" />
      </g>
    </g>
  </g>
</svg>
